<svg width="34" height="54" viewBox="0 0 34 54" fill="none" xmlns="http://www.w3.org/2000/svg">
<g clip-path="url(#clip0_1_46)">
<path d="M28.1071 19.9239C24.9965 17.309 21.0295 15.9356 16.968 16.0675C12.9503 15.9717 9.03317 17.33 5.93731 19.8926C7.20323 18.1515 8.86155 16.7331 10.7779 15.7524C12.6942 14.7718 14.8146 14.2564 16.9673 14.2481L16.9997 14.2471L17.032 14.2481C19.1901 14.2791 21.312 14.8073 23.2328 15.7917C25.1536 16.7761 26.8216 18.1901 28.1071 19.9239ZM33.9979 29.3754C33.9956 29.2536 33.9914 29.1341 33.9871 29.0148L31.8631 29.1264C31.8661 29.4019 31.8642 29.6101 31.875 29.7405C31.89 29.9256 31.9306 29.9696 32.0823 29.9605C32.234 29.9514 32.3669 29.948 32.3669 29.948C32.3669 29.948 32.3699 30.6197 32.3699 31.3933C32.3519 31.6253 32.4227 31.8555 32.568 32.0374C32.5427 32.0235 32.522 32.0114 32.495 31.9967C32.1427 31.8486 31.7519 31.8192 31.3814 31.9129C31.0988 31.9993 30.8259 32.115 30.5673 32.258C30.6784 33.0117 30.5197 33.7804 30.1193 34.4286C29.3753 35.9412 25.6454 43.9478 23.7962 46.5123C23.3918 47.153 22.8631 47.7063 22.2414 48.1394C22.2616 48.3888 22.3002 48.6364 22.3569 48.8801C22.4456 49.1566 22.6069 49.4043 22.8239 49.5973C23.0409 49.7902 23.3056 49.9215 23.5906 49.9774C25.1193 50.2284 26.5415 48.3409 27.087 47.535C27.6325 46.7291 28.543 45.2701 30.447 41.7573C32.0464 38.8065 33.6954 35.1737 33.621 33.8348C33.593 33.3994 33.4647 32.9763 33.246 32.5988C33.1446 32.4455 33.0133 32.3142 32.8601 32.2127C32.8999 32.2223 32.9405 32.2278 32.9814 32.229C33.1346 32.229 33.602 32.1299 33.602 31.4151C33.602 30.7003 33.585 29.8827 33.585 29.8827C33.585 29.8827 33.6174 29.8801 33.8155 29.8708C33.9672 29.8637 34.0002 29.7838 33.9999 29.5656C33.9997 29.5086 33.9997 29.445 33.9979 29.3754ZM4.09191 22.0283C4.3851 21.427 4.63744 20.8067 4.84721 20.1715C6.33261 17.1633 11.0746 13.4063 16.9666 13.4063L16.9997 13.4053L17.0323 13.4063C22.9245 13.4063 27.6663 17.1633 29.1523 20.1715C29.3619 20.8067 29.6141 21.4271 29.9073 22.0283C31.0235 23.9374 31.6831 26.0787 31.8347 28.285L33.9394 28.1744C33.7708 25.5058 32.9449 22.9203 31.5352 20.6481C31.2443 20.2468 30.9307 19.8624 30.596 19.4968C29.117 17.2447 27.1056 15.392 24.7398 14.1028C22.374 12.8135 19.7268 12.1274 17.0326 12.1053L16.9997 12.1061L16.9671 12.1053C14.2729 12.1273 11.6256 12.8134 9.25976 14.1026C6.89391 15.3919 4.88246 17.2446 3.40351 19.4968C3.06863 19.8623 2.75498 20.2467 2.46411 20.6481C1.05415 22.9207 0.228157 25.5067 0.0597057 28.1758L2.16451 28.2863C2.31587 26.0796 2.97552 23.9378 4.09191 22.0283ZM11.326 37.622C10.2182 35.3849 8.95782 33.2266 7.55381 31.1625C7.21626 30.772 6.75888 30.5044 6.25313 30.4014C5.74739 30.2984 5.22177 30.3658 4.75841 30.5932C4.63092 30.6857 4.51015 30.7872 4.39701 30.8968C3.74611 31.6638 3.84181 32.5638 4.45301 33.8068C5.19701 35.3194 8.9269 43.326 10.7761 45.8906C11.6937 47.1629 12.4252 47.8944 13.5661 47.7952C13.925 47.7651 14.2626 47.6124 14.5223 47.3628C14.8794 46.8898 15.0681 46.311 15.0582 45.7184C14.9688 44.8502 14.6803 44.0144 14.2151 43.276C14.0908 43.0277 11.7971 38.5891 11.326 37.622ZM10.141 46.512C8.29181 43.9476 4.56171 35.941 3.81781 34.4284C3.41734 33.7803 3.25864 33.0115 3.36971 32.2578C3.11101 32.1148 2.83814 31.9992 2.55551 31.9127C2.19666 31.8251 1.81956 31.8503 1.47551 31.9847C1.58721 31.8084 1.64079 31.6015 1.62871 31.3932C1.62871 30.6195 1.63171 29.9479 1.63171 29.9479C1.63171 29.9479 1.76491 29.951 1.91661 29.9603C2.06831 29.9696 2.10871 29.9257 2.12391 29.7403C2.13451 29.6103 2.13271 29.4023 2.13561 29.1274L0.0116057 29.0158C0.00720569 29.1348 0.00300569 29.2538 0.000805692 29.3751C-0.00109431 29.4751 0.000805692 29.5628 0.00200569 29.6358C0.00540569 29.8014 0.0520057 29.8642 0.183506 29.8703C0.381506 29.8796 0.414106 29.8822 0.414106 29.8822C0.414106 29.8822 0.396806 30.7 0.396806 31.4149C0.396806 32.1298 0.864206 32.2288 1.01741 32.2288C1.02741 32.2288 1.04261 32.2272 1.05651 32.2261C0.912061 32.3257 0.788085 32.4522 0.691306 32.5986C0.472802 32.9762 0.344498 33.3992 0.316406 33.8346C0.241906 35.1735 1.89101 38.8063 3.49041 41.7571C5.39431 45.2699 6.30471 46.7288 6.85041 47.5347C7.39611 48.3406 8.81801 50.2282 10.3467 49.9772C10.6316 49.9213 10.8964 49.7901 11.1133 49.5971C11.3303 49.4041 11.4915 49.1565 11.5802 48.88C11.6371 48.6363 11.6757 48.3887 11.6958 48.1393C11.0741 47.7062 10.5454 47.1528 10.141 46.512ZM29.4843 33.8065C30.0955 32.5638 30.1912 31.6638 29.5403 30.8965C29.4271 30.7869 29.3063 30.6855 29.1789 30.5929C28.7155 30.3655 28.1899 30.2981 27.6841 30.4011C27.1783 30.5041 26.7209 30.7717 26.3833 31.1622C24.9794 33.2264 23.7191 35.3846 22.6112 37.6217C22.14 38.5888 19.8463 43.0274 19.7224 43.2753C19.2573 44.0138 18.9688 44.8496 18.8793 45.7178C18.8694 46.3104 19.0581 46.8893 19.4154 47.3622C19.675 47.6119 20.0126 47.7646 20.3715 47.7946C21.5123 47.8938 22.2436 47.1624 23.1615 45.89C25.0103 43.3257 28.7404 35.3191 29.4843 33.8065Z" fill="#1D1D1F"/>
</g>
<defs>
<clipPath id="clip0_1_46">
<rect width="34" height="54" fill="white"/>
</clipPath>
</defs>
</svg>
