<svg width="32" height="54" viewBox="0 0 32 54" fill="none" xmlns="http://www.w3.org/2000/svg">
<g clip-path="url(#clip0_1_60)">
<path d="M25.1429 18H6.8571C3.0857 18 0 21.0857 0 24.8571V43.1428C0 46.9143 3.0857 50 6.8571 50H25.1428C28.9143 50 32 46.9143 32 43.1429V24.8571C32 21.0857 28.9143 18 25.1429 18ZM22.8093 39.6593C22.7319 40.0006 22.5908 40.3216 22.3731 40.6108C22.1562 40.8991 21.8781 41.1354 21.5539 41.3125C21.2258 41.492 20.8815 41.5942 20.514 41.6628C19.8241 41.7916 19.3519 41.8207 18.9084 41.7381C18.4805 41.6584 18.1179 41.4762 17.828 41.23C17.3984 40.865 17.1305 40.3721 17.072 39.8568C17.0035 39.2531 17.2205 38.6081 17.71 38.1329C17.957 37.8931 18.2673 37.7034 18.6814 37.5546C19.1148 37.3988 19.5931 37.3059 20.3283 37.1685C20.522 37.1324 20.7156 37.0962 20.9094 37.06C21.1641 37.0125 21.3825 36.9521 21.5586 36.7528C21.7361 36.552 21.7388 36.3113 21.7388 36.069L21.7389 29.9571C21.7389 29.4897 21.5126 29.3622 21.0308 29.448C20.6863 29.5102 13.2889 30.8921 13.2889 30.8921C12.8716 30.9854 12.725 31.1118 12.725 31.5913L12.7252 40.5468C12.7252 40.8979 12.7054 41.2095 12.6256 41.5612C12.5482 41.9026 12.4071 42.2236 12.1894 42.5127C11.9725 42.801 11.6943 43.0372 11.3702 43.2144C11.0421 43.3939 10.6978 43.5012 10.3303 43.5698C9.6403 43.6987 9.1682 43.7278 8.7246 43.6451C8.2968 43.5654 7.9341 43.3781 7.6443 43.1319C7.2147 42.7669 6.9644 42.274 6.9059 41.7587C6.8373 41.155 7.0368 40.51 7.5264 40.0348C7.7733 39.7951 8.0835 39.6053 8.4977 39.4565C8.9312 39.3007 9.4095 39.2078 10.1446 39.0704C10.3383 39.0343 10.532 38.9981 10.7257 38.9619C10.9804 38.9143 11.1989 38.8539 11.3749 38.6546C11.551 38.4552 11.5713 38.2163 11.5713 37.9755C11.5713 36.0805 11.5713 27.662 11.5713 27.662C11.5713 27.523 11.5843 27.4305 11.592 27.384C11.6275 27.1669 11.7216 26.9808 11.8913 26.8488C12.0323 26.7391 12.2138 26.6635 12.4461 26.6178L12.4495 26.6171L21.3487 24.9541C21.4258 24.9395 22.0691 24.8337 22.1414 24.8279C22.6224 24.7894 22.8925 25.0819 22.8925 25.5568L22.8928 38.6402C22.8929 38.9913 22.889 39.3075 22.8093 39.6593Z" fill="#1D1D1F"/>
</g>
<defs>
<clipPath id="clip0_1_60">
<rect width="32" height="54" fill="white"/>
</clipPath>
</defs>
</svg>
