<svg width="34" height="54" viewBox="0 0 34 54" fill="none" xmlns="http://www.w3.org/2000/svg">
<g clip-path="url(#clip0_1_30)">
<path d="M6.34925 40.1211L6.35465 40.1239C6.34735 40.1245 6.34085 40.1187 6.34925 40.1211ZM6.35785 40.1232L6.35465 40.1239L6.35785 40.1277L6.36135 40.1371L6.36885 40.1138L6.36135 40.1211L6.35785 40.1232ZM15.4235 31.7341C15.2903 33.1192 14.6778 34.4144 13.6918 35.3964C13.6484 35.4464 13.6109 35.4889 13.579 35.5264C13.0234 36.0768 12.4222 36.5791 11.7816 37.0279L11.7789 37.0313L11.7504 37.0507C11.5094 37.2269 11.2592 37.3902 11.0009 37.54L10.6982 37.7087C10.1979 37.9489 9.68069 38.152 9.15065 38.3165L9.11215 38.3318C8.87217 38.4131 8.62403 38.468 8.37215 38.4954C8.17803 38.528 7.98203 38.5482 7.78535 38.5559C7.24466 38.599 6.7018 38.6084 6.15995 38.584C5.05193 38.426 4.01859 37.9334 3.19815 37.1721C2.69553 36.7858 2.25777 36.3217 1.90135 35.7975C1.61035 35.4076 1.36489 34.9857 1.16975 34.54C1.0894 34.3525 1.02119 34.16 0.965546 33.9637C0.830477 33.5328 0.758695 33.0845 0.752446 32.633C0.687046 31.9724 0.82163 31.3074 1.13875 30.7242C1.32696 30.3883 1.53788 30.0656 1.77005 29.7584C1.75835 29.7566 1.74345 29.7513 1.73195 29.7497C2.72268 28.3667 3.99197 27.2064 5.45815 26.3435C6.92039 25.4216 8.61882 24.944 10.3472 24.9687C11.1239 24.9842 12.4572 25.3635 14.1772 27.387C15.073 28.6531 15.5124 30.1857 15.4235 31.7341ZM5.33425 34.8518C5.17407 34.4423 4.96806 34.0522 4.72015 33.6891C4.47226 33.3315 4.18288 33.0045 3.85805 32.715C3.38045 32.3436 2.69275 32.151 2.54275 32.6467C2.487 33.0318 2.51041 33.4242 2.61154 33.7999C2.71268 34.1756 2.88942 34.5267 3.13095 34.8318C3.33261 35.1738 3.60222 35.471 3.92316 35.7048C4.24409 35.9386 4.60954 36.1042 4.99695 36.1913C5.47435 36.23 5.57095 35.4471 5.33425 34.8518ZM12.8789 28.1771L12.8289 28.1086C12.6803 27.9065 12.4578 27.7715 12.2099 27.733C11.9621 27.6945 11.7091 27.7557 11.5061 27.9031L9.20095 29.5886C8.9989 29.7372 8.86389 29.9598 8.82538 30.2076C8.78688 30.4555 8.84802 30.7085 8.99545 30.9114L9.04545 30.9798C9.19406 31.1818 9.4166 31.3169 9.66446 31.3554C9.91231 31.3939 10.1653 31.3327 10.3682 31.1853L12.6734 29.5C12.8756 29.3514 13.0106 29.1288 13.0491 28.8809C13.0876 28.633 13.0265 28.38 12.8789 28.1771ZM6.00095 48.5853C6.02541 48.9561 6.18514 49.3049 6.44983 49.5657C6.71453 49.8265 7.06575 49.981 7.43685 50H9.05845C9.46523 49.9511 9.84085 49.7575 10.1167 49.4546C10.3926 49.1516 10.5502 48.7596 10.5609 48.35V39.2355C9.10415 39.7868 7.55854 40.0659 6.00095 40.0592C5.99955 40.092 6.00095 48.1706 6.00095 48.5853ZM27.6472 40.1239C27.6545 40.1245 27.661 40.1187 27.6526 40.1211L27.6472 40.1239ZM27.6405 40.1211L27.633 40.1138L27.6405 40.1371L27.644 40.1277L27.6472 40.1239L27.644 40.1232L27.6405 40.1211ZM33.2494 32.6326C33.2432 33.0841 33.1714 33.5324 33.0363 33.9633C32.9807 34.1596 32.9125 34.3521 32.8321 34.5396C32.6371 34.9852 32.3918 35.4072 32.1009 35.7971C31.7445 36.3213 31.3068 36.7854 30.8041 37.1717C29.9837 37.933 28.9504 38.4256 27.8423 38.5836C27.3005 38.608 26.7576 38.5986 26.2169 38.5555C26.0203 38.5478 25.8243 38.5276 25.6301 38.495C25.3783 38.4676 25.1301 38.4127 24.8901 38.3314L24.8516 38.3161C24.3216 38.1516 23.8043 37.9485 23.304 37.7083L23.0009 37.54C22.7427 37.3904 22.4926 37.2274 22.2516 37.0514L22.2231 37.032L22.2204 37.0286C21.5799 36.5798 20.9786 36.0775 20.423 35.5271C20.3911 35.4893 20.3536 35.4464 20.3102 35.3971C19.3243 34.4151 18.7118 33.1199 18.5785 31.7348C18.4897 30.1863 18.9292 28.6534 19.8251 27.3873C21.5451 25.3638 22.8781 24.9845 23.6551 24.969C25.3836 24.9443 27.082 25.4219 28.5442 26.3438C30.0104 27.2067 31.2797 28.367 32.2704 29.75C32.2589 29.7516 32.244 29.7569 32.2323 29.7587C32.4645 30.0659 32.6754 30.3886 32.8636 30.7245C33.1805 31.3075 33.3149 31.9723 33.2494 32.6326ZM21.3284 29.5L23.6338 31.1855C23.8368 31.3329 24.0898 31.3941 24.3376 31.3556C24.5855 31.3171 24.808 31.182 24.9566 30.98L25.0066 30.9116C25.1541 30.7086 25.2153 30.4555 25.1767 30.2077C25.1382 29.9598 25.0031 29.7372 24.8009 29.5886L22.4954 27.9031C22.2925 27.7557 22.0395 27.6945 21.7917 27.733C21.5438 27.7715 21.3213 27.9065 21.1726 28.1086L21.1226 28.1771C20.9752 28.38 20.914 28.6331 20.9526 28.881C20.9912 29.1289 21.1263 29.3514 21.3284 29.5ZM31.4591 32.6469C31.3091 32.1512 30.6214 32.3438 30.1438 32.7152C29.819 33.0047 29.5296 33.3317 29.2817 33.6893C29.0338 34.0524 28.8278 34.4425 28.6676 34.852C28.4311 35.4473 28.5276 36.2305 29.0049 36.192C29.3924 36.1048 29.7579 35.9391 30.0788 35.7052C30.3998 35.4712 30.6694 35.174 30.8709 34.8318C31.1125 34.5267 31.2892 34.1756 31.3903 33.7999C31.4915 33.4242 31.5149 33.032 31.4591 32.6469ZM28.0009 40.0592C26.4433 40.0659 24.8977 39.7868 23.4409 39.2355V48.35C23.4517 48.7596 23.6093 49.1516 23.8852 49.4546C24.161 49.7575 24.5367 49.9511 24.9434 50H26.565C26.9286 49.9599 27.268 49.7985 27.5285 49.5418C27.789 49.2851 27.9554 48.9482 28.0009 48.5853V40.0592Z" fill="#1D1D1F"/>
</g>
<defs>
<clipPath id="clip0_1_30">
<rect width="34" height="54" fill="white"/>
</clipPath>
</defs>
</svg>
