<svg width="39" height="54" viewBox="0 0 39 54" fill="none" xmlns="http://www.w3.org/2000/svg">
<g clip-path="url(#clip0_1_38)">
<path d="M27.0329 39.8358C27.8839 40.0617 28.7617 40.1705 29.6422 40.1591V48.5869C29.6154 48.9428 29.4657 49.2784 29.2188 49.5361C28.972 49.7939 28.6432 49.9579 28.2888 50H26.7406C26.3424 49.9565 25.9749 49.7655 25.7104 49.4647C25.4459 49.1639 25.3036 48.775 25.3115 48.3745V39.1845C25.8706 39.4384 26.4456 39.656 27.0329 39.8358ZM25.3115 38.0887C24.0572 37.4494 22.934 36.5806 22.0001 35.5273C21.0612 34.5043 20.4952 33.1942 20.394 31.8094C20.3516 30.6335 20.6288 29.4682 21.1963 28.4374C21.6806 27.6461 22.3468 26.9818 23.1394 26.4996C23.9321 26.0175 24.8283 25.7315 25.7538 25.6653C25.7998 25.6653 25.846 25.6661 25.8926 25.6676C27.2845 25.7136 30.6477 26.0264 33.6684 30.0266C33.5051 30.0328 33.3422 30.0473 33.1804 30.0701C32.3699 30.2064 31.5975 30.5124 30.9136 30.9681C30.2297 31.4238 29.6498 32.0188 29.2119 32.7142C28.3733 34.0086 27.9429 35.5251 27.9765 37.067C27.9844 37.2948 28.0132 37.5215 28.0624 37.7441C28.1747 38.2346 28.378 38.6997 28.6617 39.1154C28.209 39.082 27.7609 39.0029 27.3243 38.8792C26.6326 38.6719 25.9593 38.4074 25.3115 38.0887ZM26.3771 31.7557C26.5701 31.8883 26.803 31.9503 27.0365 31.9312C27.2699 31.9121 27.4896 31.813 27.6586 31.6508L27.7166 31.5784C27.8228 31.4654 27.9008 31.3289 27.9442 31.1801C27.9877 31.0312 27.9953 30.8742 27.9665 30.7218C27.9377 30.5695 27.8733 30.4261 27.7785 30.3033C27.6837 30.1806 27.5613 30.082 27.4212 30.0156L25.9112 29.0438C25.7007 28.897 25.447 28.8253 25.1909 28.8401C24.9348 28.8549 24.6911 28.9554 24.499 29.1255L24.4141 29.2079C24.326 29.3155 24.2622 29.4408 24.2269 29.5753C24.1915 29.7098 24.1855 29.8503 24.2092 29.9873C24.2329 30.1243 24.2858 30.2546 24.3643 30.3694C24.4428 30.4841 24.545 30.5807 24.6641 30.6525L26.3771 31.7557ZM38.1115 35.9512C38.0728 36.1531 38.0203 36.3521 37.9544 36.5469C37.7937 37.009 37.5802 37.4511 37.3181 37.8643C37.0034 38.4195 36.6024 38.921 36.1301 39.35C35.7412 39.7366 35.2777 40.0399 34.7677 40.2413C34.2577 40.4427 33.712 40.538 33.1639 40.5215C32.5346 40.5229 31.9097 40.4164 31.3164 40.2066C31.2422 40.1719 31.1841 40.1376 31.1143 40.103C30.8324 39.9656 30.5594 39.811 30.2968 39.6398C30.0785 39.4976 29.8731 39.3366 29.683 39.1586C29.6686 39.1449 29.6562 39.1311 29.6423 39.1173C29.2113 38.6951 28.915 38.1547 28.7909 37.5643C28.7603 37.429 28.74 37.2916 28.7301 37.1532C28.5735 35.3311 29.6677 31.4298 33.3066 30.8091C33.5349 30.769 33.7662 30.7482 33.9979 30.747C34.0653 30.747 34.137 30.7581 34.2062 30.7623C34.4714 30.7743 34.7338 30.8222 34.9861 30.9047C35.0336 30.9212 35.075 30.9481 35.1215 30.9659C35.3692 31.0583 35.609 31.1706 35.8386 31.3017C36.5779 31.7279 37.1887 32.3457 37.6063 33.09C37.8706 33.5786 38.0506 34.1083 38.1386 34.6568C38.1987 35.0869 38.1895 35.5239 38.1115 35.9512ZM36.8078 35.1712C36.6591 34.6825 36.0961 34.6932 35.7454 35.1712L34.003 37.5726C33.7363 38.0719 33.9382 38.6776 34.4057 38.635H34.4067C35.1408 38.4161 35.7785 37.9539 36.2149 37.3244C36.6513 36.6949 36.8604 35.9354 36.8078 35.1712ZM9.35785 40.1589V48.5867C9.3846 48.9427 9.53423 49.2783 9.78114 49.5361C10.028 49.7939 10.3569 49.9579 10.7114 50H12.2595C12.6576 49.9565 13.0251 49.7656 13.2896 49.4647C13.5541 49.1639 13.6964 48.775 13.6886 48.3745V39.1845C13.1294 39.4383 12.5544 39.6557 11.9673 39.8354C11.1163 40.0614 10.2383 40.1701 9.35785 40.1589ZM17.8036 28.4372C18.371 29.468 18.6483 30.6333 18.6059 31.8092C18.5047 33.1941 17.9389 34.5042 17.0001 35.5273C16.0662 36.5806 14.943 37.4495 13.6888 38.0887C13.0408 38.4073 12.3675 38.6716 11.6759 38.8787C11.2383 39.0026 10.7894 39.0818 10.3359 39.115C10.6211 38.6999 10.8252 38.2346 10.9376 37.7436C10.9867 37.521 11.0155 37.2943 11.0235 37.0665C11.0569 35.5247 10.6265 34.0085 9.78805 32.7142C9.3502 32.0188 8.77038 31.4238 8.08657 30.9681C7.40276 30.5125 6.63038 30.2064 5.82005 30.07C5.6582 30.0472 5.49529 30.0327 5.33195 30.0265C8.35265 26.0265 11.716 25.7135 13.1079 25.6675C13.1546 25.666 13.2005 25.6652 13.2467 25.6652C14.172 25.7315 15.0681 26.0176 15.8607 26.4997C16.6533 26.9819 17.3192 27.6459 17.8036 28.4372ZM14.5863 29.2072L14.5014 29.1248C14.3092 28.9547 14.0655 28.8542 13.8094 28.8394C13.5533 28.8246 13.2996 28.8963 13.0892 29.0431L11.5792 30.0149C11.439 30.0813 11.3166 30.1799 11.2218 30.3026C11.127 30.4254 11.0626 30.5688 11.0338 30.7211C11.005 30.8735 11.0126 31.0305 11.056 31.1794C11.0995 31.3282 11.1774 31.4647 11.2837 31.5777L11.3418 31.6501C11.5107 31.8123 11.7304 31.9114 11.9638 31.9305C12.1973 31.9496 12.4302 31.8876 12.6233 31.755L14.3371 30.6518C14.4559 30.5799 14.558 30.4833 14.6364 30.3686C14.7147 30.2539 14.7675 30.1236 14.7911 29.9867C14.8147 29.8498 14.8087 29.7094 14.7734 29.5751C14.738 29.4407 14.6742 29.3148 14.5863 29.2072ZM9.35785 39.1172C9.34395 39.131 9.33155 39.1447 9.31715 39.1584C9.12703 39.3365 8.92164 39.4975 8.70335 39.6396C8.44067 39.8108 8.16761 39.9655 7.88575 40.1028C7.81575 40.1374 7.75795 40.1717 7.68375 40.2064C7.0904 40.4162 6.46549 40.5227 5.83615 40.5213C5.28811 40.5378 4.74244 40.4425 4.23247 40.2411C3.7225 40.0397 3.25893 39.7365 2.87005 39.35C2.39762 38.9209 1.99656 38.4193 1.68195 37.864C1.41984 37.4508 1.2063 37.0087 1.04555 36.5466C0.979727 36.3518 0.927239 36.1528 0.888451 35.9509C0.810485 35.5236 0.801336 35.0866 0.861351 34.6564C0.949482 34.108 1.12947 33.5785 1.39375 33.09C1.81159 32.3458 2.42245 31.7281 3.16195 31.302C3.39131 31.171 3.6309 31.0588 3.87835 30.9665C3.92515 30.9486 3.96685 30.9216 4.01435 30.905C4.26672 30.8225 4.52911 30.7746 4.79435 30.7626C4.86355 30.7584 4.93515 30.7473 5.00255 30.7473C5.23432 30.7485 5.46558 30.7693 5.69385 30.8094C9.33275 31.4301 10.4271 35.3314 10.2705 37.1535C10.2605 37.2919 10.2402 37.4293 10.2097 37.5646C10.0854 38.1551 9.78895 38.695 9.35785 39.1172ZM4.99705 37.5726L3.25465 35.1714C2.90405 34.6934 2.34095 34.6827 2.19225 35.1714C2.14184 35.5459 2.16662 35.9268 2.26512 36.2916C2.36363 36.6565 2.53389 36.998 2.76595 37.2963C2.96262 37.6327 3.22631 37.9251 3.54066 38.1554C3.855 38.3857 4.21331 38.5489 4.59335 38.635C5.06095 38.6776 5.26375 38.0719 4.99705 37.5726Z" fill="#1D1D1F"/>
</g>
<defs>
<clipPath id="clip0_1_38">
<rect width="39" height="54" fill="white"/>
</clipPath>
</defs>
</svg>
