<svg width="32" height="54" viewBox="0 0 32 54" fill="none" xmlns="http://www.w3.org/2000/svg">
<g clip-path="url(#clip0_1_22)">
<path d="M7.37833 17.7111C4.63753 17.8111 2.74483 19.5776 1.12553 21.3021C0.401426 22.0732 0.577426 22.6421 0.577426 24.2473C0.577426 26.42 0.530226 26.6807 1.15063 27.6162C1.80631 28.6899 2.71888 29.5835 3.80608 30.2165C4.89328 30.8495 6.12092 31.202 7.37833 31.2422C11.5511 31.5639 15.1524 28.2212 15.1524 24.4847C15.1524 20.7482 11.5603 17.5585 7.37833 17.7111ZM3.58033 26.5455C3.58033 26.7277 3.50795 26.9024 3.37911 27.0313C3.25027 27.1601 3.07553 27.2325 2.89333 27.2325C2.71112 27.2325 2.53638 27.1601 2.40754 27.0313C2.27871 26.9024 2.20633 26.7277 2.20633 26.5455V22.5077C2.20633 22.3255 2.27871 22.1508 2.40754 22.0219C2.53638 21.8931 2.71112 21.8207 2.89333 21.8207C3.07553 21.8207 3.25027 21.8931 3.37911 22.0219C3.50795 22.1508 3.58033 22.3255 3.58033 22.5077V26.5455ZM11.5638 24.5209C11.563 24.7958 11.4534 25.0592 11.259 25.2536C11.0647 25.448 10.8012 25.5576 10.5263 25.5584H8.28263C8.00768 25.5577 7.7442 25.4482 7.5498 25.2538C7.35539 25.0593 7.24589 24.7958 7.24523 24.5209V24.3921C7.24591 24.1172 7.35543 23.8537 7.54983 23.6593C7.74423 23.4649 8.0077 23.3554 8.28263 23.3547H10.5258C10.8008 23.3554 11.0643 23.4649 11.2587 23.6593C11.4531 23.8537 11.5626 24.1172 11.5633 24.3921L11.5638 24.5209ZM7.79033 32.6473C9.64049 32.7881 11.4821 32.2819 13.0003 31.2151V48.1992C12.9287 48.6699 12.7014 49.1031 12.3548 49.4295C12.0081 49.7559 11.5621 49.9568 11.0879 50H9.31793C8.92561 49.9548 8.56045 49.7771 8.28272 49.4964C8.00499 49.2156 7.8313 48.8486 7.79033 48.4558C7.79033 48.4558 7.80353 32.6606 7.79033 32.6473ZM16.9041 24.4847C16.9041 28.2212 20.5054 31.5639 24.6782 31.2422C25.9356 31.202 27.1633 30.8495 28.2505 30.2165C29.3377 29.5835 30.2502 28.6899 30.9059 27.6162C31.5259 26.6807 31.4791 26.42 31.4791 24.2473C31.4791 22.6419 31.6551 22.0732 30.931 21.3021C29.3117 19.5776 27.419 17.8111 24.6782 17.7111C20.4957 17.5585 16.9041 20.7482 16.9041 24.4847ZM28.2322 22.5077C28.2322 22.3255 28.3046 22.1508 28.4334 22.0219C28.5623 21.8931 28.737 21.8207 28.9192 21.8207C29.1014 21.8207 29.2762 21.8931 29.405 22.0219C29.5338 22.1508 29.6062 22.3255 29.6062 22.5077V26.5455C29.6062 26.7277 29.5338 26.9024 29.405 27.0313C29.2762 27.1601 29.1014 27.2325 28.9192 27.2325C28.737 27.2325 28.5623 27.1601 28.4334 27.0313C28.3046 26.9024 28.2322 26.7277 28.2322 26.5455V22.5077ZM20.4932 24.3921C20.4939 24.1172 20.6034 23.8538 20.7977 23.6594C20.9921 23.465 21.2555 23.3555 21.5303 23.3547H23.7735C24.0485 23.3554 24.3119 23.4649 24.5063 23.6593C24.7007 23.8537 24.8102 24.1172 24.8109 24.3921V24.5209C24.8103 24.7958 24.7008 25.0593 24.5064 25.2538C24.312 25.4482 24.0485 25.5577 23.7735 25.5584H21.5303C21.2554 25.5576 20.992 25.448 20.7976 25.2536C20.6032 25.0592 20.4936 24.7958 20.4928 24.5209L20.4932 24.3921ZM24.1532 48.4558C24.1532 49.1691 23.0926 50 22.3661 50H20.5961C20.1569 49.9446 19.7529 49.7313 19.4593 49.4C19.1657 49.0687 19.0025 48.6419 19.0003 48.1992V31.2151C20.4972 32.2811 22.3207 32.788 24.1529 32.6473C24.1495 32.6656 24.1532 48.4558 24.1532 48.4558Z" fill="#1D1D1F"/>
</g>
<defs>
<clipPath id="clip0_1_22">
<rect width="32" height="54" fill="white"/>
</clipPath>
</defs>
</svg>
